<svg xmlns="http://www.w3.org/2000/svg" viewBox="-4 -4 41 41"><path fill="#fff" d="M-4-4h41v41H-4z"/><path d="M0 0h7v1H0V0m11 0h1v1h-1V0m2 0h1v1h-1V0m3 0h2v1h-2V0m3 0h5v1h-5V0m7 0h7v1h-7V0M0 1h1v1H0V1m6 0h1v1H6V1m4 0h2v1h-2V1m3 0h5v1h-5V1m7 0h3v1h-3V1m4 0h1v1h-1V1m2 0h1v1h-1V1m6 0h1v1h-1V1M0 2h1v1H0V2m2 0h3v1H2V2m4 0h1v1H6V2m2 0h1v1H8V2m3 0h2v1h-2V2m3 0h1v1h-1V2m2 0h1v1h-1V2m5 0h4v1h-4V2m5 0h1v1h-1V2m2 0h3v1h-3V2m4 0h1v1h-1V2M0 3h1v1H0V3m2 0h3v1H2V3m4 0h1v1H6V3m2 0h1v1H8V3m2 0h1v1h-1V3m2 0h1v1h-1V3m5 0h1v1h-1V3m2 0h1v1h-1V3m3 0h1v1h-1V3m2 0h1v1h-1V3m2 0h1v1h-1V3m2 0h3v1h-3V3m4 0h1v1h-1V3M0 4h1v1H0V4m2 0h3v1H2V4m4 0h1v1H6V4m2 0h1v1H8V4m10 0h2v1h-2V4m3 0h1v1h-1V4m2 0h1v1h-1V4m3 0h1v1h-1V4m2 0h3v1h-3V4m4 0h1v1h-1V4M0 5h1v1H0V5m6 0h1v1H6V5m2 0h1v1H8V5m3 0h3v1h-3V5m4 0h1v1h-1V5m5 0h3v1h-3V5m4 0h1v1h-1V5m2 0h1v1h-1V5m6 0h1v1h-1V5M0 6h7v1H0V6m8 0h1v1H8V6m2 0h1v1h-1V6m2 0h1v1h-1V6m2 0h1v1h-1V6m2 0h1v1h-1V6m2 0h1v1h-1V6m2 0h1v1h-1V6m2 0h1v1h-1V6m2 0h1v1h-1V6m2 0h7v1h-7V6M0 7v1-1m8 0h1v1H8V7m4 0h1v1h-1V7m3 0h2v1h-2V7m3 0h2v1h-2V7m3 0h1v1h-1V7M0 8h1v1H0V8m2 0h5v1H2V8m11 0h3v1h-3V8m4 0h1v1h-1V8m2 0h1v1h-1V8m7 0h5v1h-5V8M0 9v1-1m1 0h2v1H1V9m9 0h1v1h-1V9m3 0h1v1h-1V9m5 0h3v1h-3V9m4 0h2v1h-2V9m4 0h2v1h-2V9m3 0h4v1h-4V9M0 10v1-1m1 0h1v1H1v-1m2 0h2v1H3v-1m3 0h4v1H6v-1m5 0h1v1h-1v-1m2 0h4v1h-4v-1m7 0h1v1h-1v-1m2 0h1v1h-1v-1m3 0h2v1h-2v-1m3 0h1v1h-1v-1m2 0h2v1h-2v-1M0 11h3v1H0v-1m4 0h2v1H4v-1m3 0h2v1H7v-1m4 0h3v1h-3v-1m5 0h1v1h-1v-1m2 0h4v1h-4v-1m6 0h2v1h-2v-1m4 0h4v1h-4v-1M0 12h1v1H0v-1m2 0h2v1H2v-1m3 0h2v1H5v-1m4 0h3v1H9v-1m5 0h1v1h-1v-1m2 0h2v1h-2v-1m6 0h1v1h-1v-1m3 0h1v1h-1v-1m2 0h3v1h-3v-1m4 0h1v1h-1v-1M0 13h2v1H0v-1m3 0h2v1H3v-1m7 0h2v1h-2v-1m6 0h6v1h-6v-1m7 0h1v1h-1v-1m3 0h2v1h-2v-1m3 0h4v1h-4v-1M0 14v1-1m1 0h2v1H1v-1m4 0h2v1H5v-1m3 0h1v1H8v-1m2 0h2v1h-2v-1m4 0h3v1h-3v-1m4 0h1v1h-1v-1m6 0h5v1h-5v-1m6 0h2v1h-2v-1M0 15h2v1H0v-1m5 0h1v1H5v-1m7 0h1v1h-1v-1m2 0h1v1h-1v-1m4 0h1v1h-1v-1m2 0h2v1h-2v-1m3 0h1v1h-1v-1m2 0h2v1h-2v-1m4 0h2v1h-2v-1M0 16v1-1m2 0h6v1H2v-1m9 0h5v1h-5v-1m6 0h1v1h-1v-1m2 0h1v1h-1v-1m4 0h3v1h-3v-1m4 0h3v1h-3v-1m5 0h1v1h-1v-1M0 17v1-1m4 0h2v1H4v-1m3 0h1v1H7v-1m2 0h2v1H9v-1m3 0h3v1h-3v-1m4 0h1v1h-1v-1m3 0h5v1h-5v-1m7 0h2v1h-2v-1m3 0h4v1h-4v-1M0 18v1-1m1 0h1v1H1v-1m2 0h2v1H3v-1m3 0h2v1H6v-1m3 0h1v1H9v-1m3 0h5v1h-5v-1m9 0h2v1h-2v-1m3 0h2v1h-2v-1m3 0h2v1h-2v-1m3 0h2v1h-2v-1M0 19v1-1m3 0h1v1H3v-1m8 0h3v1h-3v-1m4 0h1v1h-1v-1m4 0h3v1h-3v-1m5 0h1v1h-1v-1m2 0h6v1h-6v-1M0 20v1-1m1 0h1v1H1v-1m2 0h1v1H3v-1m2 0h8v1H5v-1m11 0h2v1h-2v-1m3 0h1v1h-1v-1m4 0h3v1h-3v-1m4 0h3v1h-3v-1M0 21h3v1H0v-1m4 0h2v1H4v-1m5 0h1v1H9v-1m3 0h2v1h-2v-1m4 0h1v1h-1v-1m3 0h3v1h-3v-1m4 0h1v1h-1v-1m2 0h2v1h-2v-1m7 0h1v1h-1v-1M0 22h1v1H0v-1m3 0h4v1H3v-1m5 0h5v1H8v-1m7 0h2v1h-2v-1m5 0h3v1h-3v-1m5 0h2v1h-2v-1m3 0h4v1h-4v-1M0 23h1v1H0v-1m4 0h2v1H4v-1m4 0h1v1H8v-1m2 0h6v1h-6v-1m11 0h3v1h-3v-1m4 0h1v1h-1v-1m3 0h1v1h-1v-1m2 0h2v1h-2v-1M0 24h1v1H0v-1m2 0h1v1H2v-1m3 0h2v1H5v-1m3 0h1v1H8v-1m7 0h1v1h-1v-1m2 0h1v1h-1v-1m6 0h6v1h-6v-1m8 0h2v1h-2v-1M0 25v1-1m8 0h1v1H8v-1m3 0h3v1h-3v-1m5 0h1v1h-1v-1m2 0h2v1h-2v-1m4 0h3v1h-3v-1m6 0h1v1h-1v-1m2 0h1v1h-1v-1m2 0h1v1h-1v-1M0 26h7v1H0v-1m10 0h1v1h-1v-1m2 0h1v1h-1v-1m2 0h2v1h-2v-1m3 0h1v1h-1v-1m3 0h5v1h-5v-1m6 0h1v1h-1v-1m2 0h1v1h-1v-1m2 0h2v1h-2v-1M0 27h1v1H0v-1m6 0h1v1H6v-1m2 0h1v1H8v-1m6 0h1v1h-1v-1m2 0h1v1h-1v-1m2 0h1v1h-1v-1m3 0h4v1h-4v-1m7 0h4v1h-4v-1M0 28h1v1H0v-1m2 0h3v1H2v-1m4 0h1v1H6v-1m2 0h2v1H8v-1m4 0h2v1h-2v-1m5 0h1v1h-1v-1m5 0h1v1h-1v-1m2 0h6v1h-6v-1m7 0h1v1h-1v-1M0 29h1v1H0v-1m2 0h3v1H2v-1m4 0h1v1H6v-1m2 0h2v1H8v-1m3 0h1v1h-1v-1m2 0h2v1h-2v-1m3 0h1v1h-1v-1m2 0h8v1h-8v-1m10 0h2v1h-2v-1m3 0h2v1h-2v-1M0 30h1v1H0v-1m2 0h3v1H2v-1m4 0h1v1H6v-1m2 0h1v1H8v-1m5 0h6v1h-6v-1m8 0h1v1h-1v-1m3 0h1v1h-1v-1m2 0h2v1h-2v-1m3 0h2v1h-2v-1M0 31h1v1H0v-1m6 0h1v1H6v-1m3 0h1v1H9v-1m4 0h1v1h-1v-1m5 0h1v1h-1v-1m2 0h2v1h-2v-1m8 0h3v1h-3v-1M0 32h7v1H0v-1m8 0h1v1H8v-1m3 0h3v1h-3v-1m4 0h1v1h-1v-1m2 0h2v1h-2v-1m3 0h1v1h-1v-1m3 0h2v1h-2v-1m3 0h2v1h-2v-1m5 0h1v1h-1v-1m2 0"/></svg>
